<?xml version="1.0" standalone="no"?>
<!DOCTYPE svg PUBLIC "-//W3C//DTD SVG 20010904//EN"
 "http://www.w3.org/TR/2001/REC-SVG-20010904/DTD/svg10.dtd">
<svg version="1.0" xmlns="http://www.w3.org/2000/svg"
 width="1024.000000pt" height="1024.000000pt" viewBox="0 0 1024.000000 1024.000000"
 preserveAspectRatio="xMidYMid meet">
<metadata>
Created by potrace 1.11, written by Peter Selinger 2001-2013
</metadata>
<g transform="translate(0.000000,1024.000000) scale(0.100000,-0.100000)"
fill="#000000" stroke="none">
<path d="M4960 9765 c-116 -26 -224 -88 -315 -179 -88 -89 -131 -163 -165
-281 -24 -85 -27 -231 -5 -324 21 -86 84 -205 151 -282 198 -228 291 -468 310
-800 l6 -115 -116 -12 c-217 -23 -460 -82 -661 -161 -55 -21 -102 -35 -103
-30 -2 5 3 51 11 102 19 111 14 208 -14 302 -69 229 -237 390 -469 450 -75 20
-226 19 -304 -1 -370 -94 -579 -475 -460 -834 9 -24 36 -80 62 -123 77 -130
205 -234 345 -282 26 -9 68 -25 94 -36 l45 -19 -91 -86 c-116 -109 -294 -319
-368 -433 -9 -14 -183 156 -269 264 -138 171 -259 395 -329 608 -58 179 -213
379 -370 478 -177 113 -303 156 -481 166 -433 24 -803 -213 -970 -622 -38 -92
-64 -230 -64 -334 1 -160 52 -364 119 -470 16 -25 35 -58 42 -73 37 -72 171
-204 270 -265 138 -86 238 -128 364 -154 73 -15 285 -15 340 -1 152 41 494 54
688 26 171 -24 394 -91 390 -116 -1 -7 -22 -73 -48 -145 -25 -73 -57 -181 -71
-240 -30 -126 -64 -347 -64 -415 l0 -48 -35 0 c-71 0 -243 23 -315 41 -208 55
-370 142 -531 284 -51 46 -149 101 -222 126 -91 30 -254 37 -349 14 -410 -99
-616 -545 -426 -925 105 -208 334 -350 566 -350 141 0 284 47 387 128 165 128
237 176 339 226 160 79 357 126 528 126 l58 0 0 -42 c0 -64 35 -288 64 -409
129 -543 446 -1058 870 -1413 l105 -88 -23 -37 c-47 -72 -113 -170 -152 -220
-102 -134 -317 -324 -484 -429 -88 -55 -305 -153 -405 -182 -46 -14 -190 -89
-251 -131 -109 -74 -230 -221 -304 -368 -177 -353 -106 -802 170 -1081 107
-108 171 -155 285 -210 322 -154 678 -125 981 81 78 53 190 174 249 270 74
119 122 239 140 354 24 147 19 238 -26 485 -19 104 -17 426 4 550 33 196 88
364 176 538 63 124 53 119 146 77 252 -115 522 -191 805 -227 135 -16 485 -16
620 0 214 27 471 90 650 161 41 16 78 27 83 24 11 -7 -16 -293 -30 -316 -3 -5
-5 -57 -4 -116 1 -87 6 -123 26 -187 68 -207 226 -362 440 -430 45 -14 90 -19
180 -19 104 0 130 4 196 27 262 93 432 314 446 583 11 196 -80 399 -235 528
-61 51 -128 86 -262 138 -93 36 -203 92 -207 106 -2 5 34 38 79 74 110 85 316
291 407 406 l72 92 32 -22 c18 -12 39 -28 47 -34 8 -7 42 -34 75 -61 245 -200
461 -524 570 -855 58 -179 213 -379 370 -478 177 -113 303 -156 481 -166 433
-24 803 213 970 622 38 92 64 230 64 334 -1 160 -52 364 -119 470 -16 25 -35
58 -42 73 -37 72 -171 204 -270 265 -138 86 -238 128 -364 154 -73 15 -285 15
-340 1 -82 -22 -284 -42 -428 -42 -226 0 -410 31 -600 102 -199 73 -187 64
-158 130 90 208 164 457 196 665 10 59 18 109 20 111 7 8 156 -98 266 -189
101 -83 219 -127 364 -136 118 -7 222 15 332 69 94 46 227 178 275 273 86 169
98 365 31 535 -58 146 -172 272 -308 340 -117 58 -187 73 -320 68 -163 -8
-260 -46 -408 -162 -92 -73 -228 -168 -233 -163 -2 1 -10 46 -18 100 -37 227
-108 464 -202 671 -29 66 -53 120 -51 121 1 1 13 8 27 17 14 9 73 37 130 63
58 26 125 56 150 67 127 57 374 105 590 114 149 7 214 1 450 -37 335 -55 618
27 861 249 127 117 228 293 274 479 95 381 -73 806 -405 1029 -39 27 -73 45
-152 85 -126 63 -413 99 -533 68 -22 -6 -58 -14 -80 -18 -195 -37 -438 -203
-564 -386 -54 -77 -121 -208 -121 -236 0 -8 -3 -18 -6 -22 -4 -3 -16 -34 -29
-69 -78 -219 -231 -461 -404 -641 -91 -95 -227 -202 -352 -280 l-106 -65 -89
105 c-381 451 -930 770 -1514 882 -123 24 -256 41 -319 41 l-44 0 6 138 c9
208 39 327 132 517 36 74 76 138 124 195 91 110 160 218 183 287 72 219 37
429 -102 613 -77 103 -209 193 -330 225 -89 23 -239 28 -320 10z m254 -459
c70 -41 106 -130 86 -208 -24 -89 -98 -147 -187 -148 -55 0 -91 14 -132 53
-133 126 -32 353 148 332 24 -3 63 -16 85 -29z m-1669 -1326 c74 -46 107 -158
71 -243 -24 -59 -111 -117 -176 -117 -65 0 -152 58 -176 117 -43 102 13 231
115 264 42 14 128 3 166 -21z m5622 -202 c95 -42 153 -108 178 -205 36 -137
-32 -276 -164 -337 -34 -15 -65 -21 -121 -20 -92 0 -157 30 -217 98 -141 160
-63 414 145 473 51 14 135 10 179 -9z m-7674 -304 c26 -9 69 -36 96 -60 124
-111 130 -301 13 -419 -56 -56 -106 -78 -193 -83 -67 -4 -84 -1 -130 20 -67
31 -119 82 -150 145 -18 38 -23 64 -23 123 0 90 24 146 87 208 77 75 196 102
300 66z m2932 -919 c175 -46 317 -186 369 -364 20 -69 21 -199 1 -276 -49
-187 -221 -342 -417 -375 -224 -38 -453 80 -553 284 -98 200 -56 439 104 596
68 67 144 112 228 135 66 18 197 18 268 0z m-3173 -1265 c62 -42 83 -84 83
-166 0 -65 -3 -76 -31 -111 -85 -107 -245 -102 -317 10 -15 23 -28 52 -28 67
-7 110 33 182 122 220 41 17 133 7 171 -20z m7286 -1 c124 -61 137 -249 21
-326 -151 -100 -346 34 -299 206 13 49 62 109 105 127 46 20 122 17 173 -7z
m507 -2162 c63 -32 108 -79 135 -140 78 -177 -20 -367 -212 -407 -148 -32
-307 74 -338 226 -32 151 65 307 213 345 57 14 149 4 202 -24z m-2173 -747
c54 -37 81 -84 86 -149 5 -63 -11 -105 -56 -153 -33 -36 -112 -62 -160 -53
-198 37 -226 296 -41 375 41 17 133 7 171 -20z m-4004 -917 c134 -68 192 -238
129 -376 -83 -182 -310 -229 -463 -95 -79 69 -111 193 -80 303 23 76 106 162
181 188 72 25 162 17 233 -20z"/>
</g>
</svg>
